<svg width="820" height="150" viewBox="0 0 820 150" fill="none" xmlns="http://www.w3.org/2000/svg"><path d="M29.168 75.208C29.168 68.552 30.608 62.632 33.488 57.448C36.368 52.2 40.368 48.136 45.488 45.256C50.672 42.312 56.528 40.84 63.056 40.84C71.056 40.84 77.904 42.952 83.6 47.176C89.296 51.4 93.104 57.16 95.024 64.456H76.976C75.632 61.64 73.712 59.496 71.216 58.024C68.784 56.552 66 55.816 62.864 55.816C57.808 55.816 53.712 57.576 50.576 61.096C47.44 64.616 45.872 69.32 45.872 75.208C45.872 81.096 47.44 85.8 50.576 89.32C53.712 92.84 57.808 94.6 62.864 94.6C66 94.6 68.784 93.864 71.216 92.392C73.712 90.92 75.632 88.776 76.976 85.96H95.024C93.104 93.256 89.296 99.016 83.6 103.24C77.904 107.4 71.056 109.48 63.056 109.48C56.528 109.48 50.672 108.04 45.488 105.16C40.368 102.216 36.368 98.152 33.488 92.968C30.608 87.784 29.168 81.864 29.168 75.208ZM98.933 82.12C98.933 76.616 99.957 71.784 102.005 67.624C104.117 63.464 106.965 60.264 110.549 58.024C114.133 55.784 118.133 54.664 122.549 54.664C126.325 54.664 129.621 55.432 132.437 56.968C135.317 58.504 137.525 60.52 139.061 63.016V55.432H155.477V109H139.061V101.416C137.461 103.912 135.221 105.928 132.341 107.464C129.525 109 126.229 109.768 122.453 109.768C118.101 109.768 114.133 108.648 110.549 106.408C106.965 104.104 104.117 100.872 102.005 96.712C99.957 92.488 98.933 87.624 98.933 82.12ZM139.061 82.216C139.061 78.12 137.909 74.888 135.605 72.52C133.365 70.152 130.613 68.968 127.349 68.968C124.085 68.968 121.301 70.152 118.997 72.52C116.757 74.824 115.637 78.024 115.637 82.12C115.637 86.216 116.757 89.48 118.997 91.912C121.301 94.28 124.085 95.464 127.349 95.464C130.613 95.464 133.365 94.28 135.605 91.912C137.909 89.544 139.061 86.312 139.061 82.216ZM197.113 54.856C203.385 54.856 208.377 56.904 212.089 61C215.865 65.032 217.753 70.6 217.753 77.704V109H201.433V79.912C201.433 76.328 200.505 73.544 198.649 71.56C196.793 69.576 194.297 68.584 191.161 68.584C188.025 68.584 185.529 69.576 183.673 71.56C181.817 73.544 180.889 76.328 180.889 79.912V109H164.473V55.432H180.889V62.536C182.553 60.168 184.793 58.312 187.609 56.968C190.425 55.56 193.593 54.856 197.113 54.856ZM223.017 82.216C223.017 76.648 224.137 71.784 226.377 67.624C228.681 63.464 231.849 60.264 235.881 58.024C239.977 55.784 244.649 54.664 249.897 54.664C256.617 54.664 262.217 56.424 266.697 59.944C271.241 63.464 274.217 68.424 275.625 74.824H258.153C256.681 70.728 253.833 68.68 249.609 68.68C246.601 68.68 244.201 69.864 242.409 72.232C240.617 74.536 239.721 77.864 239.721 82.216C239.721 86.568 240.617 89.928 242.409 92.296C244.201 94.6 246.601 95.752 249.609 95.752C253.833 95.752 256.681 93.704 258.153 89.608H275.625C274.217 95.88 271.241 100.808 266.697 104.392C262.153 107.976 256.553 109.768 249.897 109.768C244.649 109.768 239.977 108.648 235.881 106.408C231.849 104.168 228.681 100.968 226.377 96.808C224.137 92.648 223.017 87.784 223.017 82.216ZM314.454 54.856C320.598 54.856 325.526 56.904 329.238 61C332.95 65.032 334.806 70.6 334.806 77.704V109H318.486V79.912C318.486 76.328 317.558 73.544 315.702 71.56C313.846 69.576 311.35 68.584 308.214 68.584C305.078 68.584 302.582 69.576 300.726 71.56C298.87 73.544 297.942 76.328 297.942 79.912V109H281.526V37.96H297.942V62.632C299.606 60.264 301.878 58.376 304.758 56.968C307.638 55.56 310.87 54.856 314.454 54.856ZM340.069 82.12C340.069 76.616 341.093 71.784 343.141 67.624C345.253 63.464 348.101 60.264 351.685 58.024C355.269 55.784 359.269 54.664 363.685 54.664C367.461 54.664 370.757 55.432 373.573 56.968C376.453 58.504 378.661 60.52 380.197 63.016V55.432H396.613V109H380.197V101.416C378.597 103.912 376.357 105.928 373.477 107.464C370.661 109 367.365 109.768 363.589 109.768C359.237 109.768 355.269 108.648 351.685 106.408C348.101 104.104 345.253 100.872 343.141 96.712C341.093 92.488 340.069 87.624 340.069 82.12ZM380.197 82.216C380.197 78.12 379.045 74.888 376.741 72.52C374.501 70.152 371.749 68.968 368.485 68.968C365.221 68.968 362.437 70.152 360.133 72.52C357.893 74.824 356.773 78.024 356.773 82.12C356.773 86.216 357.893 89.48 360.133 91.912C362.437 94.28 365.221 95.464 368.485 95.464C371.749 95.464 374.501 94.28 376.741 91.912C379.045 89.544 380.197 86.312 380.197 82.216ZM427.402 109.768C422.73 109.768 418.57 108.968 414.922 107.368C411.274 105.768 408.394 103.592 406.282 100.84C404.17 98.024 402.986 94.888 402.73 91.432H418.954C419.146 93.288 420.01 94.792 421.546 95.944C423.082 97.096 424.97 97.672 427.21 97.672C429.258 97.672 430.826 97.288 431.914 96.52C433.066 95.688 433.642 94.632 433.642 93.352C433.642 91.816 432.842 90.696 431.242 89.992C429.642 89.224 427.05 88.392 423.466 87.496C419.626 86.6 416.426 85.672 413.866 84.712C411.306 83.688 409.098 82.12 407.242 80.008C405.386 77.832 404.458 74.92 404.458 71.272C404.458 68.2 405.29 65.416 406.954 62.92C408.682 60.36 411.178 58.344 414.442 56.872C417.77 55.4 421.706 54.664 426.25 54.664C432.97 54.664 438.25 56.328 442.09 59.656C445.994 62.984 448.234 67.4 448.81 72.904H433.642C433.386 71.048 432.554 69.576 431.146 68.488C429.802 67.4 428.01 66.856 425.77 66.856C423.85 66.856 422.378 67.24 421.354 68.008C420.33 68.712 419.818 69.704 419.818 70.984C419.818 72.52 420.618 73.672 422.218 74.44C423.882 75.208 426.442 75.976 429.898 76.744C433.866 77.768 437.098 78.792 439.594 79.816C442.09 80.776 444.266 82.376 446.122 84.616C448.042 86.792 449.034 89.736 449.098 93.448C449.098 96.584 448.202 99.4 446.41 101.896C444.682 104.328 442.154 106.248 438.826 107.656C435.562 109.064 431.754 109.768 427.402 109.768ZM498.108 109.768C492.86 109.768 488.124 108.648 483.9 106.408C479.74 104.168 476.444 100.968 474.012 96.808C471.644 92.648 470.46 87.784 470.46 82.216C470.46 76.712 471.676 71.88 474.108 67.72C476.54 63.496 479.868 60.264 484.092 58.024C488.316 55.784 493.052 54.664 498.3 54.664C503.548 54.664 508.284 55.784 512.508 58.024C516.732 60.264 520.06 63.496 522.492 67.72C524.924 71.88 526.14 76.712 526.14 82.216C526.14 87.72 524.892 92.584 522.396 96.808C519.964 100.968 516.604 104.168 512.316 106.408C508.092 108.648 503.356 109.768 498.108 109.768ZM498.108 95.56C501.244 95.56 503.9 94.408 506.076 92.104C508.316 89.8 509.436 86.504 509.436 82.216C509.436 77.928 508.348 74.632 506.172 72.328C504.06 70.024 501.436 68.872 498.3 68.872C495.1 68.872 492.444 70.024 490.332 72.328C488.22 74.568 487.164 77.864 487.164 82.216C487.164 86.504 488.188 89.8 490.236 92.104C492.348 94.408 494.972 95.56 498.108 95.56ZM564.609 54.856C570.881 54.856 575.873 56.904 579.585 61C583.361 65.032 585.249 70.6 585.249 77.704V109H568.929V79.912C568.929 76.328 568.001 73.544 566.145 71.56C564.289 69.576 561.793 68.584 558.657 68.584C555.521 68.584 553.025 69.576 551.169 71.56C549.313 73.544 548.385 76.328 548.385 79.912V109H531.969V55.432H548.385V62.536C550.049 60.168 552.289 58.312 555.105 56.968C557.921 55.56 561.089 54.856 564.609 54.856ZM610.193 37.96V109H593.777V37.96H610.193ZM627.466 49.864C624.586 49.864 622.218 49.032 620.362 47.368C618.57 45.64 617.674 43.528 617.674 41.032C617.674 38.472 618.57 36.36 620.362 34.696C622.218 32.968 624.586 32.104 627.466 32.104C630.282 32.104 632.586 32.968 634.378 34.696C636.234 36.36 637.162 38.472 637.162 41.032C637.162 43.528 636.234 45.64 634.378 47.368C632.586 49.032 630.282 49.864 627.466 49.864ZM635.626 55.432V109H619.21V55.432H635.626ZM677.282 54.856C683.554 54.856 688.546 56.904 692.258 61C696.034 65.032 697.922 70.6 697.922 77.704V109H681.602V79.912C681.602 76.328 680.674 73.544 678.818 71.56C676.962 69.576 674.466 68.584 671.33 68.584C668.194 68.584 665.698 69.576 663.842 71.56C661.986 73.544 661.058 76.328 661.058 79.912V109H644.642V55.432H661.058V62.536C662.722 60.168 664.962 58.312 667.778 56.968C670.594 55.56 673.762 54.856 677.282 54.856ZM756.945 81.352C756.945 82.888 756.849 84.488 756.658 86.152H719.505C719.761 89.48 720.817 92.04 722.673 93.832C724.593 95.56 726.929 96.424 729.681 96.424C733.778 96.424 736.625 94.696 738.225 91.24H755.698C754.802 94.76 753.17 97.928 750.802 100.744C748.498 103.56 745.586 105.768 742.066 107.368C738.545 108.968 734.609 109.768 730.257 109.768C725.009 109.768 720.337 108.648 716.241 106.408C712.145 104.168 708.945 100.968 706.641 96.808C704.337 92.648 703.185 87.784 703.185 82.216C703.185 76.648 704.305 71.784 706.545 67.624C708.849 63.464 712.049 60.264 716.145 58.024C720.241 55.784 724.945 54.664 730.257 54.664C735.441 54.664 740.05 55.752 744.082 57.928C748.113 60.104 751.25 63.208 753.49 67.24C755.793 71.272 756.945 75.976 756.945 81.352ZM740.145 77.032C740.145 74.216 739.185 71.976 737.265 70.312C735.345 68.648 732.945 67.816 730.066 67.816C727.313 67.816 724.977 68.616 723.057 70.216C721.201 71.816 720.049 74.088 719.601 77.032H740.145Z" fill="#8ACA00"/><circle cx="774" cy="52" r="12.5" stroke="#8ACA00" stroke-width="3"/><path d="M774.88 57L772.836 53.29H772.262V57H769.868V47.172H773.886C774.661 47.172 775.319 47.3073 775.86 47.578C776.411 47.8487 776.821 48.222 777.092 48.698C777.363 49.1647 777.498 49.6873 777.498 50.266C777.498 50.9193 777.311 51.5027 776.938 52.016C776.574 52.5293 776.033 52.8933 775.314 53.108L777.582 57H774.88ZM772.262 51.596H773.746C774.185 51.596 774.511 51.4887 774.726 51.274C774.95 51.0593 775.062 50.756 775.062 50.364C775.062 49.9907 774.95 49.6967 774.726 49.482C774.511 49.2673 774.185 49.16 773.746 49.16H772.262V51.596Z" fill="#8ACA00"/></svg>